<svg width="40" height="40" fill="none" xmlns="http://www.w3.org/2000/svg"><circle cx="20" cy="20" r="20" fill="#7294C7"/><path d="M29.806 25.115c0-.083-.083-.083-.083-.166-.332-.664-1.08-1.494-2.075-2.407-.499-.416-.748-.748-.914-.914-.249-.332-.249-.58-.166-.913.083-.249.415-.664.996-1.411.333-.415.499-.664.748-.913 1.245-1.661 1.826-2.74 1.66-3.238l-.083-.084c-.083-.083-.166-.166-.332-.166-.166-.083-.415-.083-.664 0h-3.736l-.083.083c-.083.083-.083.083-.083.167-.332.913-.747 1.66-1.163 2.49-.249.415-.498.83-.747 1.163-.249.332-.415.58-.58.747-.167.166-.333.249-.416.415-.083.083-.25.166-.25.083-.082 0-.165 0-.165-.083l-.25-.25c-.082-.082-.082-.248-.165-.414v-4.151c0-.084-.083-.25-.083-.333l-.25-.249c-.082-.083-.248-.083-.331-.166a7.44 7.44 0 00-1.495-.166c-1.328 0-2.241.083-2.573.25-.167.082-.333.165-.416.331-.166.166-.166.25-.083.25.415.083.747.249.914.498l.083.166c.083.083.083.249.166.498s.083.498.083.83v1.328c0 .416-.083.665-.083.914s-.083.415-.166.498c-.083.166-.083.249-.166.249 0 0 0 .083-.084.083-.082 0-.166.083-.332.083-.083 0-.249-.083-.332-.166a1 1 0 01-.415-.415c-.166-.166-.332-.415-.498-.747-.166-.332-.415-.665-.581-1.163l-.166-.332c-.083-.166-.25-.498-.415-.913-.166-.415-.332-.747-.498-1.162a1.146 1.146 0 00-.25-.333h-.082s-.084-.083-.166-.083c-.083 0-.166-.083-.25-.083H9.798c-.332 0-.499.083-.582.166l-.083.083v.167c0 .083 0 .166.083.332.416.996.914 1.992 1.412 2.989.498.913.996 1.743 1.328 2.324.415.581.747 1.163 1.162 1.66.416.499.665.83.748.997l.332.332.249.249c.166.166.415.415.747.664.332.25.747.498 1.162.747.415.25.914.416 1.412.582.581.166 1.08.249 1.577.166h1.246a.747.747 0 00.58-.25l.084-.082c0-.084.083-.084.083-.167v-.332c0-.332 0-.58.083-.83.083-.249.083-.415.166-.581.083-.166.166-.249.249-.332l.166-.166h.083c.166-.083.415 0 .581.166.25.166.498.415.664.664.166.25.416.498.748.83.332.332.58.581.747.665l.249.166c.166.083.332.166.581.249.25.083.415.083.581.083l2.823-.083c.249 0 .498-.083.664-.166.166-.083.25-.166.25-.332v-.333c-.167-.166-.167-.249-.167-.332z" fill="#fff"/></svg>