<svg width="74" height="74" fill="none" xmlns="http://www.w3.org/2000/svg"><circle cx="37" cy="37" r="36" fill="#fff" stroke="#EEE" stroke-width="2"/><path d="M24.109 50.412h22.657v6.66H24.109v-6.66z" fill="url(#paint0_linear)"/><path d="M22.928 36.486h25.019v1.72h-25.02v-1.72z" fill="#EBE7F2"/><path d="M48.435 38.207v-3.442a.488.488 0 00-.488-.488h-25.02a.488.488 0 00-.487.488v3.442c0 .27.218.488.488.488h25.019c.27 0 .488-.219.488-.488zm-.977-.489H23.416v-2.465h24.042v2.465zm9.724 4.588H55.36a.488.488 0 00-.488.488v1.433h-5.566v-1.433a.488.488 0 00-.489-.488h-1.562v-1.834a.488.488 0 10-.977 0v16.112h-21.68V40.472a.488.488 0 10-.976 0v16.6c0 .27.218.488.488.488h22.657c.27 0 .488-.218.488-.488v-3.373h9.928c.27 0 .488-.218.488-.488V42.794a.488.488 0 00-.488-.488zm-.488 10.417h-9.44v-9.44h1.074v1.432c0 .27.219.488.488.488h6.543c.27 0 .489-.218.489-.488v-1.432h.846v9.44zm-26.53-20.564H40.71c.27 0 .488-.219.488-.488V15.91a.488.488 0 00-.488-.488H30.164a.488.488 0 00-.488.488v15.76c0 .27.218.488.488.488zm.488-15.76h9.57v14.783h-9.57V16.4z" fill="#846F75"/><path d="M43.055 24.28h8.43v14.64h-1.744a.488.488 0 00-.404.762l2.233 3.296a.488.488 0 00.808 0l2.233-3.296a.488.488 0 00-.404-.762h-1.745V23.79a.488.488 0 00-.488-.488h-8.92a.488.488 0 100 .976zm8.919 17.555l-1.312-1.937h2.624l-1.312 1.937zM32.573 20.334h3.841a.488.488 0 100-.977h-3.841a.488.488 0 100 .977zm5.957 3.255h-5.957a.488.488 0 100 .976h5.957a.488.488 0 100-.976zm0 1.953h-5.957a.488.488 0 100 .977h5.957a.488.488 0 100-.977zm0 1.953h-5.957a.488.488 0 100 .977h5.957a.488.488 0 100-.977zm13.444 18.382a3.183 3.183 0 00-3.18 3.178 3.183 3.183 0 003.18 3.18 3.183 3.183 0 003.179-3.18 3.182 3.182 0 00-3.179-3.178zm0 5.381a2.205 2.205 0 01-2.202-2.202c0-1.215.988-2.203 2.202-2.203 1.215 0 2.202.988 2.202 2.203a2.205 2.205 0 01-2.202 2.202z" fill="#846F75"/><path d="M51.663 50.476a.489.489 0 01-.366-.165l-.846-.959a.489.489 0 01.733-.646l.477.541 1.128-1.299a.488.488 0 11.737.64l-1.494 1.72a.488.488 0 01-.367.169h-.002z" fill="url(#paint1_linear)"/><defs><linearGradient id="paint0_linear" x1="19.209" y1="46.792" x2="48.767" y2="57.557" gradientUnits="userSpaceOnUse"><stop stop-color="#8AC44B"/><stop offset="1" stop-color="#86E124"/></linearGradient><linearGradient id="paint1_linear" x1="49.612" y1="46.314" x2="54.429" y2="46.949" gradientUnits="userSpaceOnUse"><stop stop-color="#8AC44B"/><stop offset="1" stop-color="#86E124"/></linearGradient></defs></svg>