<svg width="74" height="74" fill="none" xmlns="http://www.w3.org/2000/svg"><circle cx="37" cy="37" r="36" fill="#fff" stroke="#EEE" stroke-width="2"/><g clip-path="url(#clip0)"><path d="M38.757 45.725a8.28 8.28 0 01-6.872-12.893A8.28 8.28 0 1043.373 44.32a8.24 8.24 0 01-4.616 1.405z" fill="#D4E1F4"/><path d="M42.328 46.285a.75.75 0 01-.532-.22l-1.827-1.827a.753.753 0 011.065-1.064L42.86 45a.752.752 0 01-.533 1.284zm-9.83-9.83a.751.751 0 01-.532-.22l-1.827-1.827a.753.753 0 111.064-1.065l1.827 1.827a.753.753 0 01-.532 1.285zm8.004 0a.752.752 0 01-.533-1.285l1.827-1.826a.752.752 0 011.065 1.064l-1.827 1.827a.75.75 0 01-.532.22zm-9.831 9.83a.752.752 0 01-.532-1.284l1.827-1.827a.753.753 0 011.064 1.064l-1.827 1.827a.75.75 0 01-.532.22z" fill="#8AC44B"/><path d="M36.389 22.588c2.794 0 5.592.793 8.091 2.292a17.477 17.477 0 014.406 3.773l-4.432-.146h-.025a.753.753 0 00-.025 1.505l5.755.19a.753.753 0 00.994-.996l-.19-5.754a.752.752 0 10-1.504.05l.12 3.654a19.09 19.09 0 00-4.325-3.566c-2.733-1.64-5.798-2.507-8.865-2.507-4.9 0-9.416 2.02-12.717 5.688a18.753 18.753 0 00-3.46 5.585C19.42 34.36 19 36.476 19 38.472a.753.753 0 101.505 0c0-3.714 1.602-7.713 4.286-10.694 3.012-3.347 7.13-5.19 11.598-5.19zM53.247 37.72a.753.753 0 00-.752.752c0 3.714-1.602 7.712-4.286 10.694-3.012 3.347-7.131 5.19-11.598 5.19-2.794 0-5.592-.793-8.091-2.293a17.478 17.478 0 01-4.406-3.773l4.432.147a.752.752 0 00.05-1.505l-5.756-.19a.753.753 0 00-.993.996l.19 5.754a.752.752 0 101.504-.034v-.016l-.12-3.654a19.079 19.079 0 004.325 3.566c2.733 1.64 5.798 2.507 8.865 2.507 4.899 0 9.416-2.02 12.717-5.688a18.76 18.76 0 003.46-5.586C53.58 42.584 54 40.47 54 38.472a.753.753 0 00-.752-.753z" fill="#999"/><path d="M37.252 39.46v-2.894a.753.753 0 00-1.505 0v3.22c0 .21.087.408.239.55l2.637 2.465a.752.752 0 101.037-1.092l-.01-.008-2.398-2.24z" fill="#8AC44B"/><path d="M27.47 39.705a9.03 9.03 0 109.782-9v-.963h.949a.753.753 0 000-1.505H34.8a.752.752 0 100 1.505h.947v.964a9.042 9.042 0 00-8.277 8.999zm16.517-.782H42.16a.752.752 0 100 1.505h1.828a7.511 7.511 0 01-6.735 6.765v-1.83a.753.753 0 00-1.505 0v1.83a7.511 7.511 0 01-6.735-6.765h1.829a.752.752 0 100-1.505h-1.829c.354-3.537 3.185-6.352 6.735-6.706v1.828a.752.752 0 101.505 0v-1.828c3.55.354 6.382 3.17 6.735 6.706z" fill="#999"/></g><defs><clipPath id="clip0"><path fill="#fff" d="M19 21h35v35H19z"/></clipPath></defs></svg>