<svg width="74" height="74" fill="none" xmlns="http://www.w3.org/2000/svg"><circle cx="37" cy="37" r="36" fill="#fff" stroke="#EEE" stroke-width="2"/><path d="M30.638 24.205h21.444a3.43 3.43 0 00-3.431-3.43h-8.578v2.23h-5.146v-2.23h-8.578a3.43 3.43 0 00-3.43 3.43v29.507a3.43 3.43 0 003.43 3.43h.858V27.637a3.43 3.43 0 013.431-3.43z" fill="#D4E1F4"/><path d="M48.65 19.916h-7.719v-2.058a.86.86 0 00-.858-.858h-5.146a.86.86 0 00-.858.858v2.058h-7.72a4.29 4.29 0 00-4.288 4.289v29.506A4.29 4.29 0 0026.349 58h22.302a4.29 4.29 0 004.288-4.289V24.205a4.29 4.29 0 00-4.288-4.289zm-12.865-1.2h3.43v3.43h-3.43v-3.43zM51.224 53.71a2.58 2.58 0 01-2.573 2.574H26.349a2.58 2.58 0 01-2.573-2.574V24.205a2.58 2.58 0 012.573-2.573h7.72v1.372a.86.86 0 00.858.858h5.146a.86.86 0 00.858-.858v-1.372h7.72a2.58 2.58 0 012.573 2.573v29.506z" fill="#999"/><path d="M37.5 38.86a4.43 4.43 0 10.009-8.86 4.43 4.43 0 00-.009 8.86zm0-7.145a2.715 2.715 0 11.009 5.43 2.715 2.715 0 01-.009-5.43zm0 8.784a6.671 6.671 0 00-4.82 2.015c-1.287 1.313-1.99 3.097-1.99 5.036a.86.86 0 00.857.857h11.906a.86.86 0 00.857-.857c0-1.94-.703-3.723-1.99-5.036A6.671 6.671 0 0037.5 40.5zm-5.035 6.193a5.244 5.244 0 011.441-2.977 5.054 5.054 0 017.188 0 5.274 5.274 0 011.44 2.977H32.466z" fill="#8AC44B"/></svg>