<svg width="74" height="74" fill="none" xmlns="http://www.w3.org/2000/svg"><circle cx="37" cy="37" r="36" fill="#fff" stroke="#EEE" stroke-width="2"/><path d="M38.636 41.832a.875.875 0 01-.855-.69l-1.201-5.544-5.41-.756a.875.875 0 01-.337-1.612l4.714-2.899-.985-5.606a.874.874 0 011.451-.798l4.09 3.732 4.79-2.68a.875.875 0 011.236 1.101l-2.178 5.236 3.971 3.932a.875.875 0 01-.7 1.492l-5.424-.525-2.368 5.11a.875.875 0 01-.794.507zm-4.813-8.386l3.604.503c.363.05.656.323.734.681l.778 3.592 1.531-3.306a.876.876 0 01.879-.503l3.595.348-2.643-2.616a.876.876 0 01-.192-.958l1.433-3.446-3.136 1.753a.875.875 0 01-1.017-.117l-2.66-2.428.644 3.665a.875.875 0 01-.403.897l-3.146 1.935z" fill="#8AC44B"/><path d="M45.72 43.942a.873.873 0 01-.735-.397l-2.02-3.102a.875.875 0 111.466-.955l2.02 3.102a.874.874 0 01-.732 1.352zm-6.103-19.555a.875.875 0 01-.875-.875v-3.637a.875.875 0 111.75 0v3.637a.875.875 0 01-.875.875zm8.768 6.663a.875.875 0 01-.222-1.722l4.74-1.244a.875.875 0 01.444 1.692l-4.74 1.245a.877.877 0 01-.222.029zm-17.449-1.686a.95.95 0 01-.15-.013l-3.509-.605a.875.875 0 11.297-1.724l3.51.604a.875.875 0 01-.148 1.738z" fill="#8AC44B"/><path d="M19.875 53.597a.876.876 0 01-.626-1.486l17.3-17.7a.875.875 0 111.252 1.223l-17.3 17.7a.87.87 0 01-.626.263z" fill="#999"/></svg>