<svg width="74" height="74" fill="none" xmlns="http://www.w3.org/2000/svg"><circle cx="37" cy="37" r="37" fill="#fff"/><path d="M27.267 43.912a1.656 1.656 0 112.342 2.342l1.414-1.414a1.651 1.651 0 011.18-.484l-8.348-8.348-1.948 1.95 3.03 3.03 1.887 3.367.443-.443zm13.639 8.114l-.823-.823-.063.08a1.656 1.656 0 01-1.807 2.324l-.18.23.53.531a1.657 1.657 0 002.343-2.342z" fill="#EBE7F2"/><path d="M43.68 50.116l-.061.015c-.378.091-.679.358-.859.703-.09.173-.214.334-.37.473-.662.59-1.684.518-2.31-.108l-.169-.168 1.427 1.427a1.656 1.656 0 002.343-2.342z" fill="#EBE7F2"/><path d="M46.306 48.056l-.085.015a1.12 1.12 0 00-.807.645 1.656 1.656 0 01-2.669.464l1.904 1.904c.612.611 1.657.178 1.657-.686a1.656 1.656 0 000-2.342z" fill="#EBE7F2"/><path d="M49.161 46.227l-.035.004c-.38.041-.69.294-.85.641a1.655 1.655 0 01-.36.504c-.658.63-1.716.574-2.36-.07l-.618-.618 1.832 1.832c.641.641 1.694.706 2.354.085a1.656 1.656 0 00.037-2.378zm-19.552.026l-.072.072.072-.072zm-.072.072a1.656 1.656 0 01-2.343-2.342l-1.592 1.593a1.656 1.656 0 102.342 2.342l1.593-1.593zm4.566 7.145a1.656 1.656 0 01-.056-2.282.76.76 0 00-.058.056l-1.478 1.478a1.656 1.656 0 002.342 2.342l1.478-1.478.056-.06c-.65.59-1.656.572-2.284-.055zm-2.723-4.304a1.656 1.656 0 01-2.341-2.342l-1.593 1.593a1.656 1.656 0 002.342 2.342l1.593-1.593z" fill="#EBE7F2"/><path d="M34.947 50.285l-1.224 1.224a1.657 1.657 0 01-2.342-2.342l1.224-1.224-2.817 2.817a1.656 1.656 0 002.342 2.342l2.817-2.817zm-9.624-15.744l-4.215 4.215a.378.378 0 01-.535 0l-4.661-4.662a.378.378 0 010-.535l4.214-4.214 5.197 5.196zm28.569 3.609l-3.17-3.17 5.197-5.196 3.17 3.17a.378.378 0 010 .535l-4.662 4.661a.378.378 0 01-.535 0zm-2.624-2.623l-.546-.546-6.45 6.451 3.075 3.075 3.126-4.826 2.474-2.475-1.679-1.679z" fill="#EBE7F2"/><path d="M59.468 32.575L48.776 21.882a.916.916 0 00-1.294 0l-4.661 4.662a.916.916 0 000 1.295l.262.262-2.68 2.679h-3.455a2.29 2.29 0 00-1.54.592l-1.71-.553-1.947-1.947.428-.428a.909.909 0 00.268-.648.908.908 0 00-.268-.647l-4.661-4.662a.909.909 0 00-.647-.268.91.91 0 00-.647.268L15.532 33.18a.916.916 0 000 1.295l4.661 4.661a.911.911 0 00.647.268c.235 0 .47-.09.648-.268l.419-.419 2.598 2.598.946 1.688a.537.537 0 10.937-.525l-.982-1.752a.54.54 0 00-.09-.118l-2.65-2.65 8.325-8.326 2.04 2.04a.54.54 0 00.214.13l1.303.422-3.806 3.805c-.758.759-.884 1.94-.3 2.808.377.56.972.917 1.633.98a2.207 2.207 0 001.78-.638l3.702-3.701 9.41 9.41a.536.536 0 00.83-.089l3.095-4.778 2.055-2.055.565.565a.913.913 0 001.294 0l4.662-4.661a.91.91 0 00.268-.647.907.907 0 00-.268-.647zm-43.064 1.252L26.87 23.36l4.436 4.436L20.84 38.263l-4.437-4.436zM50.093 39.3a.543.543 0 00-.072.087l-2.764 4.269-9.32-9.32a.535.535 0 00-.76 0l-4.081 4.082a1.139 1.139 0 01-1.762-.183c-.299-.443-.228-1.052.168-1.448l4.572-4.572c.234-.233.544-.362.874-.362h3.677c.143 0 .28-.056.38-.157l2.837-2.837 4.173 4.173 4.173 4.173-2.095 2.095zm4.179-1.53zm-.113-.113l-.832-.832-5.567-5.567-4.068-4.067 4.437-4.437 10.467 10.467-4.437 4.436z" fill="#846F75"/><path d="M35.634 50.276a2.196 2.196 0 00-.307-2.713 2.178 2.178 0 00-1.156-.605 2.179 2.179 0 00-.426-2.498 2.196 2.196 0 00-3.101 0l-.083.083a2.176 2.176 0 00-.573-1.012 2.196 2.196 0 00-3.101 0l-1.665 1.665a2.196 2.196 0 000 3.102 2.18 2.18 0 001.305.626 2.195 2.195 0 00.54 2.215 2.18 2.18 0 001.55.641c.052 0 .105-.004.157-.007a2.188 2.188 0 002.722 2.28c.038.526.259 1.015.634 1.39.415.415.965.643 1.551.643s1.137-.228 1.551-.643l1.478-1.478a2.196 2.196 0 000-3.101 2.173 2.173 0 00-1.076-.588zm-9.652-4.32l1.664-1.665a1.116 1.116 0 011.583 0 1.12 1.12 0 010 1.583l-1.664 1.664a1.12 1.12 0 01-1.583 0 1.12 1.12 0 010-1.582zm1.844 4.423a1.111 1.111 0 01-.328-.79c0-.3.116-.58.328-.792l3.577-3.578a1.116 1.116 0 011.91.791c0 .3-.116.58-.328.792l-3.577 3.577a1.12 1.12 0 01-1.582 0zm2.342 2.343a1.12 1.12 0 010-1.583l2.817-2.817a1.116 1.116 0 011.582 0 1.12 1.12 0 010 1.583l-2.816 2.817a1.12 1.12 0 01-1.583 0zm5.783.484l-1.478 1.478a1.111 1.111 0 01-.791.327c-.3 0-.58-.116-.792-.328a1.11 1.11 0 01-.327-.79c0-.3.116-.58.327-.792l1.478-1.478c.218-.218.505-.327.791-.327a1.12 1.12 0 01.791 1.91zm12.83-7.359c-.21.21-.21.55 0 .76a1.114 1.114 0 010 1.582 1.112 1.112 0 01-.791.328c-.3 0-.58-.116-.791-.328l-1.881-1.88a.537.537 0 10-.76.759l1.367 1.367h.001a1.12 1.12 0 01-.791 1.911c-.3 0-.58-.116-.792-.328l-1.634-1.634a.537.537 0 10-.76.76l1.35 1.35.002.001a1.116 1.116 0 010 1.582 1.112 1.112 0 01-.791.329c-.3 0-.58-.117-.792-.328l-1.427-1.427a.537.537 0 10-.76.76l.17.17.002.001.823.824a1.12 1.12 0 01-.791 1.91c-.3 0-.58-.116-.792-.328l-.53-.53a.537.537 0 00-.76.76l.53.53c.415.414.966.642 1.552.642a2.18 2.18 0 001.55-.642c.377-.377.587-.857.632-1.35a2.179 2.179 0 002.143-.56c.393-.393.616-.909.638-1.46a2.18 2.18 0 001.987-.599c.353-.354.57-.807.627-1.295a2.192 2.192 0 002.229-3.636.537.537 0 00-.76 0z" fill="#846F75"/><path d="M37.5 20.614a4.28 4.28 0 100 8.559 4.28 4.28 0 000-8.559zm2.682 3.712l-1.191.865a.303.303 0 00-.11.339l.455 1.4a.303.303 0 01-.467.338l-1.19-.865a.303.303 0 00-.357 0l-1.191.865a.303.303 0 01-.466-.338l.454-1.4a.303.303 0 00-.11-.34l-1.19-.864a.303.303 0 01.177-.549h1.473a.303.303 0 00.288-.21l.455-1.4a.303.303 0 01.576 0l.455 1.4c.04.125.157.21.288.21h1.473c.293 0 .415.376.178.549z" fill="url(#paint0_linear)"/><defs><linearGradient id="paint0_linear" x1="31.369" y1="15.963" x2="43.873" y2="17.301" gradientUnits="userSpaceOnUse"><stop stop-color="#8AC44B"/><stop offset="1" stop-color="#86E124"/></linearGradient></defs></svg>