<svg width="74" height="74" fill="none" xmlns="http://www.w3.org/2000/svg"><circle cx="37" cy="37" r="36" fill="#fff" stroke="#EEE" stroke-width="2"/><path d="M42.604 39.689v.574a.422.422 0 01-.422.422H31.818a.422.422 0 01-.422-.422v-.574h-6.404l2.374 2.468H46.64l2.557-2.468h-6.592zm-1.154-6.735a3.347 3.347 0 011.153 2.467h10.859v-2.467H41.449zm-8.9 0H20.523v2.467h10.875a3.347 3.347 0 011.154-2.467zm3.748-6.735H20.522v2.467h13.369a3.174 3.174 0 012.407-2.467zm1.398 0a3.213 3.213 0 012.412 2.467h13.354V26.22H37.696z" fill="#EBE7F2"/><path d="M54.411 53.602H19.59a2.042 2.042 0 01-2.042-2.042v3.821c0 1.128.914 2.042 2.041 2.042h34.823a2.042 2.042 0 002.042-2.042v-3.82a2.042 2.042 0 01-2.042 2.04z" fill="url(#paint0_linear)"/><mask id="path-9-inside-1" fill="#fff"><path d="M57.034 32.474c-.002-.02-.002-.04-.006-.06v-.004c-.003-.013-.008-.024-.012-.037-.006-.023-.011-.046-.02-.068l-.002-.004-.017-.032a.396.396 0 00-.036-.067l-.001-.002-.018-.022c-.016-.021-.031-.043-.05-.063l-.007-.005-2.817-2.789v-5.414a1.95 1.95 0 00-1.947-1.948H21.899a1.95 1.95 0 00-1.947 1.948v5.414l-2.817 2.789-.007.005c-.019.02-.034.042-.05.063-.005.008-.012.014-.018.022l-.001.002c-.015.022-.025.045-.036.067a.24.24 0 00-.017.032l-.002.004c-.009.022-.014.045-.02.068-.004.012-.009.024-.011.037l-.001.005c-.004.02-.004.039-.006.059-.002.017-.005.034-.005.05v22.857c0 .777.341 1.475.88 1.957l.013.014.023.019a2.638 2.638 0 00.318.233 2.542 2.542 0 00.432.22l.093.034c.045.016.09.031.137.045.035.01.07.018.106.027.043.01.086.022.13.03.045.009.091.014.137.021.036.005.07.011.107.015.083.008.167.012.251.012h34.823c.085 0 .169-.005.252-.012.036-.004.071-.01.107-.015a2.16 2.16 0 00.137-.021c.044-.008.086-.02.13-.03l.106-.027c.046-.014.091-.03.136-.045l.093-.034a2.75 2.75 0 00.558-.303l.074-.055c.04-.031.08-.062.118-.095l.024-.019c.005-.004.008-.01.012-.014.54-.482.88-1.18.88-1.957V32.525a.405.405 0 00-.004-.05zm-1.167 22.907c0 .269-.074.52-.202.736l-12.822-9.42 11.029-10.823.004-.004 1.991-1.95v21.46zm-.25-22.857l-1.569 1.537v-3.09l1.57 1.553zM21.9 23.13h30.202c.427 0 .775.348.775.776v11.302l-10.99 10.785-3.33-2.447a2.616 2.616 0 00-3.112 0l-3.33 2.447-10.99-10.785V23.907c0-.428.348-.776.775-.776zm-3.564 32.986a1.445 1.445 0 01-.202-.736V33.92l1.99 1.95.005.004 11.029 10.824-12.822 9.42zm1.617-22.056l-1.57-1.537 1.57-1.554v3.091zm-.364 22.776c-.07 0-.139-.007-.207-.017-.007 0-.014-.002-.02-.003l13.014-9.56.035-.026 3.729-2.74a1.448 1.448 0 011.723 0l3.732 2.742.029.022 13.016 9.562-.02.003c-.068.01-.137.017-.207.017H19.589z"/></mask><path d="M57.034 32.474c-.002-.02-.002-.04-.006-.06v-.004c-.003-.013-.008-.024-.012-.037-.006-.023-.011-.046-.02-.068l-.002-.004-.017-.032a.396.396 0 00-.036-.067l-.001-.002-.018-.022c-.016-.021-.031-.043-.05-.063l-.007-.005-2.817-2.789v-5.414a1.95 1.95 0 00-1.947-1.948H21.899a1.95 1.95 0 00-1.947 1.948v5.414l-2.817 2.789-.007.005c-.019.02-.034.042-.05.063-.005.008-.012.014-.018.022l-.001.002c-.015.022-.025.045-.036.067a.24.24 0 00-.017.032l-.002.004c-.009.022-.014.045-.02.068-.004.012-.009.024-.011.037l-.001.005c-.004.02-.004.039-.006.059-.002.017-.005.034-.005.05v22.857c0 .777.341 1.475.88 1.957l.013.014.023.019a2.638 2.638 0 00.318.233 2.542 2.542 0 00.432.22l.093.034c.045.016.09.031.137.045.035.01.07.018.106.027.043.01.086.022.13.03.045.009.091.014.137.021.036.005.07.011.107.015.083.008.167.012.251.012h34.823c.085 0 .169-.005.252-.012.036-.004.071-.01.107-.015a2.16 2.16 0 00.137-.021c.044-.008.086-.02.13-.03l.106-.027c.046-.014.091-.03.136-.045l.093-.034a2.75 2.75 0 00.558-.303l.074-.055c.04-.031.08-.062.118-.095l.024-.019c.005-.004.008-.01.012-.014.54-.482.88-1.18.88-1.957V32.525a.405.405 0 00-.004-.05zm-1.167 22.907c0 .269-.074.52-.202.736l-12.822-9.42 11.029-10.823.004-.004s0 0 0 0l1.991-1.95v21.46h0zm-.25-22.857l-1.569 1.537v-3.09l1.57 1.553zM21.9 23.13h30.202c.427 0 .775.348.775.776v11.302l-10.99 10.785-3.33-2.447a2.616 2.616 0 00-3.112 0l-3.33 2.447-10.99-10.785V23.907c0-.428.348-.776.775-.776zm-3.564 32.986a1.445 1.445 0 01-.202-.736V33.92l1.99 1.95s0 0 0 0l.005.004 11.029 10.824-12.822 9.42zm1.617-22.056l-1.57-1.537 1.57-1.554v3.091zm-.364 22.776c-.07 0-.139-.007-.207-.017-.007 0-.014-.002-.02-.003l13.014-9.56.035-.026 3.729-2.74a1.448 1.448 0 011.723 0l3.732 2.742.029.022 13.016 9.562-.02.003c-.068.01-.137.017-.207.017H19.589z" fill="#fff" stroke="#999" stroke-width="4" mask="url(#path-9-inside-1)"/><path d="M30.186 20.993l5.795-5.704a1.463 1.463 0 012.037 0l5.795 5.705a.584.584 0 00.828-.006.586.586 0 00-.006-.829l-5.796-5.707a2.642 2.642 0 00-3.679.001l-5.796 5.704a.586.586 0 00.822.836z" fill="url(#paint1_linear)"/><path d="M39.25 32.131h-.8a3.17 3.17 0 001.719-2.939c-.06-1.627-1.393-2.974-3.019-3.048a3.17 3.17 0 00-1.6 5.987h-.799a3.355 3.355 0 00-3.355 3.355v4.776c0 .233.19.422.422.422h10.364a.422.422 0 00.422-.422v-4.776a3.355 3.355 0 00-3.355-3.355zm.667 2.98l-3.135 3.608a.586.586 0 01-.44.201h-.002a.587.587 0 01-.44-.198l-1.773-2.01a.586.586 0 01.878-.776l1.332 1.51 2.695-3.103a.585.585 0 11.885.768z" fill="url(#paint2_linear)"/><defs><linearGradient id="paint0_linear" x1="9.132" y1="48.374" x2="47.338" y2="75.517" gradientUnits="userSpaceOnUse"><stop stop-color="#8AC44B"/><stop offset="1" stop-color="#86E124"/></linearGradient><linearGradient id="paint1_linear" x1="25.81" y1="9.656" x2="47.787" y2="14.585" gradientUnits="userSpaceOnUse"><stop stop-color="#8AC44B"/><stop offset="1" stop-color="#86E124"/></linearGradient><linearGradient id="paint2_linear" x1="28.972" y1="18.236" x2="45.422" y2="19.593" gradientUnits="userSpaceOnUse"><stop stop-color="#8AC44B"/><stop offset="1" stop-color="#86E124"/></linearGradient></defs></svg>